<svg xmlns="http://www.w3.org/2000/svg" xmlns:xlink="http://www.w3.org/1999/xlink" width="500" zoomAndPan="magnify" viewBox="0 0 375 374.999991" height="500" preserveAspectRatio="xMidYMid meet" version="1.0"><defs><g/><clipPath id="51091d647c"><path d="M 167 116 L 264.976562 116 L 264.976562 158.910156 L 167 158.910156 Z M 167 116 " clip-rule="nonzero"/></clipPath><clipPath id="93686fabc7"><path d="M 115 115.410156 L 170 115.410156 L 170 158.910156 L 115 158.910156 Z M 115 115.410156 " clip-rule="nonzero"/></clipPath></defs><g clip-path="url(#51091d647c)"><path fill="#c6ab7c" d="M 264.976562 158.234375 L 211.992188 116.175781 L 167.710938 116.175781 L 220.695312 158.234375 Z M 264.976562 158.234375 " fill-opacity="1" fill-rule="nonzero"/></g><g clip-path="url(#93686fabc7)"><path fill="#c6ab7c" d="M 115.722656 158.890625 C 115.53125 158.890625 115.339844 158.808594 115.207031 158.644531 C 114.984375 158.359375 115.03125 157.949219 115.3125 157.722656 L 168.296875 115.664062 C 168.582031 115.4375 168.996094 115.488281 169.21875 115.769531 C 169.441406 116.054688 169.394531 116.464844 169.113281 116.6875 L 116.132812 158.746094 C 116.011719 158.847656 115.867188 158.890625 115.722656 158.890625 Z M 115.722656 158.890625 " fill-opacity="1" fill-rule="nonzero"/></g><path fill="#c6ab7c" d="M 156.972656 147.886719 L 165.730469 147.886719 L 165.730469 156.644531 L 156.972656 156.644531 Z M 156.972656 147.886719 " fill-opacity="1" fill-rule="nonzero"/><path fill="#c6ab7c" d="M 169.6875 147.886719 L 178.445312 147.886719 L 178.445312 156.644531 L 169.6875 156.644531 Z M 169.6875 147.886719 " fill-opacity="1" fill-rule="nonzero"/><path fill="#c6ab7c" d="M 156.972656 135.75 L 165.730469 135.75 L 165.730469 144.507812 L 156.972656 144.507812 Z M 156.972656 135.75 " fill-opacity="1" fill-rule="nonzero"/><path fill="#c6ab7c" d="M 169.6875 135.75 L 178.445312 135.75 L 178.445312 144.507812 L 169.6875 144.507812 Z M 169.6875 135.75 " fill-opacity="1" fill-rule="nonzero"/><path fill="#c6ab7c" d="M 144.199219 135.75 L 135.441406 142.394531 L 135.441406 122.34375 L 144.199219 122.34375 Z M 144.199219 135.75 " fill-opacity="1" fill-rule="nonzero"/><g fill="#c6ab7c" fill-opacity="1"><g transform="translate(68.796766, 204.180469)"><g><path d="M 1.46875 0 L 8.75 -33.8125 L 9.75 -33.8125 L 20.203125 -9.65625 L 20.546875 -9.65625 L 31 -33.8125 L 32 -33.8125 L 39.28125 0 L 37.03125 0 L 31 -27.203125 L 30.671875 -27.203125 L 20.828125 -4.609375 L 19.921875 -4.609375 L 10.03125 -27.203125 L 9.75 -27.203125 L 3.703125 0 Z M 1.46875 0 "/></g></g></g><g fill="#c6ab7c" fill-opacity="1"><g transform="translate(113.393165, 204.180469)"><g><path d="M 14.6875 0 L 14.6875 -13.59375 L 0.578125 -33.28125 L 3.234375 -33.28125 L 15.640625 -16.078125 L 15.921875 -16.078125 L 28.4375 -33.28125 L 31.046875 -33.28125 L 16.875 -13.546875 L 16.875 0 Z M 14.6875 0 "/></g></g></g><g fill="#c6ab7c" fill-opacity="1"><g transform="translate(148.861298, 204.180469)"><g><path d="M 3.796875 0 L 3.796875 -33.28125 L 5.984375 -33.28125 L 5.984375 -17.453125 L 29.4375 -17.453125 L 29.4375 -33.28125 L 31.625 -33.28125 L 31.625 0 L 29.4375 0 L 29.4375 -15.3125 L 5.984375 -15.3125 L 5.984375 0 Z M 3.796875 0 "/></g></g></g><g fill="#c6ab7c" fill-opacity="1"><g transform="translate(188.085336, 204.180469)"><g><path d="M 19.203125 0.578125 C 16.828125 0.578125 14.625 0.15625 12.59375 -0.6875 C 10.570312 -1.53125 8.816406 -2.71875 7.328125 -4.25 C 5.835938 -5.789062 4.675781 -7.609375 3.84375 -9.703125 C 3.019531 -11.796875 2.609375 -14.09375 2.609375 -16.59375 C 2.609375 -19.09375 3.019531 -21.394531 3.84375 -23.5 C 4.675781 -25.613281 5.835938 -27.4375 7.328125 -28.96875 C 8.816406 -30.507812 10.570312 -31.703125 12.59375 -32.546875 C 14.625 -33.390625 16.828125 -33.8125 19.203125 -33.8125 C 21.617188 -33.8125 23.835938 -33.390625 25.859375 -32.546875 C 27.890625 -31.703125 29.648438 -30.507812 31.140625 -28.96875 C 32.628906 -27.4375 33.785156 -25.613281 34.609375 -23.5 C 35.429688 -21.394531 35.84375 -19.09375 35.84375 -16.59375 C 35.84375 -14.09375 35.429688 -11.796875 34.609375 -9.703125 C 33.785156 -7.609375 32.628906 -5.789062 31.140625 -4.25 C 29.648438 -2.71875 27.890625 -1.53125 25.859375 -0.6875 C 23.835938 0.15625 21.617188 0.578125 19.203125 0.578125 Z M 19.203125 -1.515625 C 21.992188 -1.515625 24.472656 -2.15625 26.640625 -3.4375 C 28.816406 -4.726562 30.53125 -6.515625 31.78125 -8.796875 C 33.03125 -11.078125 33.65625 -13.675781 33.65625 -16.59375 C 33.65625 -19.539062 33.03125 -22.144531 31.78125 -24.40625 C 30.53125 -26.675781 28.816406 -28.460938 26.640625 -29.765625 C 24.472656 -31.066406 21.992188 -31.71875 19.203125 -31.71875 C 16.453125 -31.71875 13.988281 -31.066406 11.8125 -29.765625 C 9.644531 -28.460938 7.929688 -26.675781 6.671875 -24.40625 C 5.421875 -22.144531 4.796875 -19.539062 4.796875 -16.59375 C 4.796875 -13.675781 5.421875 -11.078125 6.671875 -8.796875 C 7.929688 -6.515625 9.644531 -4.726562 11.8125 -3.4375 C 13.988281 -2.15625 16.453125 -1.515625 19.203125 -1.515625 Z M 19.203125 -1.515625 "/></g></g></g><g fill="#c6ab7c" fill-opacity="1"><g transform="translate(230.399668, 204.180469)"><g><path d="M 1.46875 0 L 8.75 -33.8125 L 9.75 -33.8125 L 20.203125 -9.65625 L 20.546875 -9.65625 L 31 -33.8125 L 32 -33.8125 L 39.28125 0 L 37.03125 0 L 31 -27.203125 L 30.671875 -27.203125 L 20.828125 -4.609375 L 19.921875 -4.609375 L 10.03125 -27.203125 L 9.75 -27.203125 L 3.703125 0 Z M 1.46875 0 "/></g></g></g><g fill="#c6ab7c" fill-opacity="1"><g transform="translate(274.996078, 204.180469)"><g><path d="M 3.796875 0 L 3.796875 -33.28125 L 28 -33.28125 L 28 -31.1875 L 5.984375 -31.1875 L 5.984375 -17.921875 L 24.71875 -17.921875 L 24.71875 -16.015625 L 5.984375 -16.015625 L 5.984375 -2.09375 L 28.578125 -2.09375 L 28.578125 0 Z M 3.796875 0 "/></g></g></g><path stroke-linecap="round" transform="matrix(0.75, 0, 0, 0.75, 111.749997, 225.452592)" fill="none" stroke-linejoin="miter" d="M 1.000004 1.000711 L 203.3021 1.000711 " stroke="#c6ab7c" stroke-width="2" stroke-opacity="1" stroke-miterlimit="4"/></svg>